<svg width="110" height="25" viewBox="0 0 110 25" fill="none" xmlns="http://www.w3.org/2000/svg">
<g clip-path="url(#clip0_101_89)">
<path d="M0.250015 23.037V0.25H3.94997L15.65 15.236V4.017H11.616L9.01601 0.25H19.958V23.037H15.647L3.94698 8.46201V23.037H0.250015Z" fill="white" stroke="white" stroke-width="0.5"/>
<path d="M21.949 0.25H26.393V23.478H21.949V0.25Z" fill="white" stroke="white" stroke-width="0.5"/>
<path d="M28.241 0.25H32.685V11.233L42.2 0.25H47.466L36.318 13.214L43.503 23.345H37.818L32.686 16.232V23.345H28.242L28.241 0.25Z" fill="white" stroke="white" stroke-width="0.5"/>
<path d="M45.798 23.345L60.718 0.756012H64.7V23.345H54.168L56.537 19.345H60.718V9.06L50.488 23.345H45.798Z" fill="white" stroke="white" stroke-width="0.5"/>
<path d="M85.509 0.755005H89.748V23.375H85.509V0.755005Z" fill="white" stroke="white" stroke-width="0.5"/>
<path d="M83.277 0.825012L80.259 4.94101C80.259 4.94101 76.241 4.41201 74.172 4.94101C72.103 5.47001 71.986 6.36699 71.986 7.05499C71.986 8.67899 77.796 10.822 77.796 10.822C77.796 10.822 81.835 12.613 82.59 14.035C83.039 14.8723 83.3609 15.7719 83.545 16.704C83.545 16.704 84.417 21.223 80.26 22.863C76.103 24.503 67.327 23.417 67.327 23.417L69.727 20.132C71.9247 20.4661 74.1603 20.4661 76.358 20.132C78.839 19.516 79.653 18.572 79.653 17.669C79.653 15.616 76.841 14.662 76.841 14.662C75.3456 14.1271 73.8822 13.5068 72.458 12.804C71.2487 12.1768 70.1412 11.3703 69.173 10.412C68.5274 9.41343 68.1949 8.24482 68.218 7.056C68.2523 6.20986 68.4584 5.37952 68.8237 4.61554C69.189 3.85155 69.7059 3.16989 70.343 2.612C71.883 1.054 76.358 0.825989 76.358 0.825989L83.277 0.825012Z" fill="white" stroke="white" stroke-width="0.5"/>
<path d="M108.584 0.825012L105.566 4.94101C105.566 4.94101 101.548 4.41201 99.479 4.94101C97.41 5.47001 97.293 6.36699 97.293 7.05499C97.293 8.67899 103.103 10.822 103.103 10.822C103.103 10.822 107.142 12.613 107.897 14.035C108.346 14.8723 108.668 15.7719 108.852 16.704C108.852 16.704 109.724 21.223 105.567 22.863C101.41 24.503 92.634 23.417 92.634 23.417L95.034 20.132C97.2317 20.4661 99.4673 20.4661 101.665 20.132C104.146 19.516 104.96 18.572 104.96 17.669C104.96 15.616 102.148 14.662 102.148 14.662C100.653 14.1271 99.1892 13.5068 97.765 12.804C96.5557 12.1768 95.4482 11.3703 94.48 10.412C93.8345 9.41343 93.5019 8.24482 93.525 7.056C93.5593 6.20986 93.7654 5.37952 94.1307 4.61554C94.496 3.85155 95.0129 3.16989 95.65 2.612C97.19 1.054 101.665 0.825989 101.665 0.825989L108.584 0.825012Z" fill="white" stroke="white" stroke-width="0.5"/>
</g>
<defs>
<clipPath id="clip0_101_89">
<rect width="109.193" height="24.098" fill="white"/>
</clipPath>
</defs>
</svg>
