<svg version="1.2" xmlns="http://www.w3.org/2000/svg" viewBox="0 0 150 150" width="150" height="150">
	<title>kaver-2</title>
	<style>
		.s0 { fill: #ffffff } 
	</style>
	<path id="Path 0" class="s0" d="m64.5 15.7c-2.2 0.2-8.3 1.3-13.5 2.4-5.2 1.1-12.2 2.9-15.5 4-3.3 1.1-9.8 3.7-14.4 5.7l-8.4 3.7c1 10.9 1.5 14.2 1.8 14.5 0.3 0.3 4.7-1.6 9.8-4.1 5-2.6 13-5.9 17.7-7.4 4.7-1.4 12.8-3.3 18-4.1 5.2-0.8 11.5-1.4 14-1.3 2.5 0 4 0.2 3.5 0.4-0.5 0.2-5 1.6-10 3-5 1.5-12.8 4.6-17.5 6.8-4.7 2.2-12.3 6.7-17 9.9-4.7 3.2-10 7-11.9 8.5l-3.3 2.8c2.7 8.5 3.9 11.6 4.3 12.3 0.7 0.9 1.9 0.5 5.2-1.7 2.3-1.6 7.6-4.5 11.7-6.4 4.1-2 11.3-4.6 16-5.8 6.7-1.8 11.3-2.3 22-2.3 11.1-0.1 15.1 0.3 22.5 2.3 5 1.3 13.4 4.5 18.8 7.2 6.8 3.4 9.8 4.5 10.2 3.6 0.3-0.6 1.1-3.5 1.9-6.2 0.8-2.8 1.3-5.3 1-5.8-0.2-0.4-3.4-2.2-7.1-4.1-3.8-1.8-10.4-4.5-14.8-6-4.4-1.5-12-3.3-17-4-8.8-1.3-8.9-1.3-5-2.2 2.2-0.5 11.7-0.9 21-0.8 9.3 0 19 0.6 21.5 1.2 2.5 0.6 4.6 1 4.6 0.9 0.1-0.1 0.3-3.3 0.5-7 0.4-6.8 0.4-6.9-2.6-8.4-1.7-0.9-6.6-2.8-11-4.4-4.4-1.5-11.4-3.5-15.5-4.4-4.1-0.9-10.7-2-14.5-2.5-3.8-0.5-10.6-0.9-15-0.8-4.4 0.1-9.8 0.3-12 0.5zm-7.5 56.4c-4.1 1.1-10.2 3.4-13.5 5.1-3.3 1.6-7.9 4.2-10.2 5.6-2.4 1.5-4.3 3.3-4.3 4 0 0.6 2.4 4.9 5.4 9.5 3 4.5 8.7 11.7 12.8 16l7.3 7.9c11.6-8.2 18.1-13.5 21.8-17.1 3.8-3.6 8.8-9.2 11-12.4 3.9-5.4 4.4-5.8 7.2-5.1 1.7 0.3 4.5 1.3 6.3 2 2.1 0.9 3 1.9 2.7 2.9-0.3 0.8-3.4 5.2-6.9 9.8-3.4 4.5-9 10.6-12.2 13.5-3.2 3-8.7 7.5-12.2 10-3.4 2.6-6.2 4.9-6.3 5.2 0 0.3 2.5 2.2 5.6 4.3 4.8 3.2 5.8 3.6 7.7 2.5 1.3-0.6 5.2-3.7 8.8-6.7 3.6-3.1 8.4-7.6 10.8-10.1 2.4-2.5 6.7-7.7 9.6-11.5 2.9-3.8 7.2-10.5 9.5-14.7 2.2-4.3 3.9-8.4 3.7-9-0.1-0.7-3.4-2.9-7.2-4.9-3.8-2-10.1-4.6-13.9-5.9-3.8-1.2-9-2.4-11.5-2.7l-4.5-0.5c-8.5 12.9-13.7 19.3-17 22.6-3.3 3.2-7.2 6.7-8.8 7.7l-2.7 1.9c-8.9-11.4-8.9-11.5-6.7-12.3 1.2-0.5 3.5-1.8 5.2-3 1.6-1.2 5.3-5.1 8.2-8.7 2.9-3.6 5-6.8 4.8-7.2-0.3-0.5-1.1-0.8-1.8-0.7-0.6 0-4.6 0.9-8.7 2z"/>
</svg>